<?xml version="1.0" encoding="UTF-8"?>
<svg width="262px" height="262px" viewBox="0 0 262 262" version="1.1" xmlns="http://www.w3.org/2000/svg" xmlns:xlink="http://www.w3.org/1999/xlink">
    <!-- Generator: Sketch 41.2 (35397) - http://www.bohemiancoding.com/sketch -->
    <title>porcentaje</title>
    <desc>Created with Sketch.</desc>
    <defs></defs>
    <g id="skills" stroke="none" stroke-width="1" fill="none" fill-rule="evenodd">
        <g id="siklls-iPhone-7-Copy" transform="translate(-57.000000, -144.000000)" stroke-width="7.19999957" stroke="#FFFFFF">
            <g id="photoshop" transform="translate(8.000000, 95.000000)">
                <g id="porcentaje">
                    <path d="M180.2,307.261438 C250.45062,307.261438 307.4,250.343076 307.4,180.130719 C307.4,109.918362 250.45062,53 180.2,53 C109.94938,53 53,109.918362 53,180.130719 C53,250.343076 109.94938,307.261438 180.2,307.261438 Z" id="empty" opacity="0.199999988"></path>
                    <path d="M180,307.03268 C250.25062,307.03268 307.2,250.114318 307.2,179.901961 C307.2,109.689603 250.25062,52.7712418 180,52.7712418 C143.587691,52.7712418 110.748837,68.0626859 87.5614257,92.5708957 C66.01314,115.346612 52.8,146.08208 52.8,179.901961 C52.8,214.157984 66.3561318,245.249528 88.3992365,268.110194" id="empty" stroke-linecap="round" transform="translate(180.000000, 179.901961) rotate(-225.000000) translate(-180.000000, -179.901961) "></path>
                </g>
            </g>
        </g>
    </g>
</svg>